<?xml version="1.0" encoding="utf-8"?>
<!-- Generator: Adobe Illustrator 27.7.0, SVG Export Plug-In . SVG Version: 6.00 Build 0)  -->
<svg version="1.1" id="Layer_1" xmlns="http://www.w3.org/2000/svg" xmlns:xlink="http://www.w3.org/1999/xlink" x="0px" y="0px"
	 viewBox="0 0 360 360" style="enable-background:new 0 0 360 360;" xml:space="preserve">
<style type="text/css">
	.st0{fill:#FFFFFF;stroke:#000000;stroke-miterlimit:10;}
	.st1{display:none;}
</style>
<path class="st0" d="M302.3,200.8c-3.5,23.6-2.3,17.4-5.4,26.5c-1.3,3.8-4.9,9.1-11.3,12.2c-6,2.9-3.3,1-10.7,2.8c0,0,0,0-5.6-0.5
	c0,0-0.1,7.8-6.6,25.6c-10.1,27.4-26.6,37.2-26.6,37.2c-14.7,11.8-23.9,12.5-31.3,20.1c-8.8,9-22.5,12.8-26.7,14
	c-12.8,3.9-24.2-1.5-26.6-1.9c-10.5-2-20.1-6.3-25.4-9.8c-6.4-4.3-7-6-13-12.2c-11.7-12-13.9-23.4-16.2-26.7
	C86.3,273,87.5,262.8,83.6,257c-6.5-9.6-4.5-5-6.5-7.1c-2.4-2.5-4.7-4.8-6.6-10.4c-0.8-2.4-0.3-7.2-0.5-11.1c0,0,0,0,0,0
	c-0.1-2.6-2.3-9.5-2.8-15.3c0-0.5,1.2-8.7,0-15.9c-3.9-23.3-6.1-33.4-6.3-41.6c0,0-1.3-13.2-1.3-13.2c0.1-11.1,3.7-22.1,7.6-37.1
	c3-11.7,11.3-26.5,33.8-46.7c4.3-3.9,30.4-37.3,69.6-35.2c25.6,1.4,42.1,13.8,59.1,25.1c6.7,4.5,24.2,22.7,44.3,53.2
	c18.2,27.5,19.2,66.1,20.5,71.8C296.1,180.8,305,182.3,302.3,200.8z"/>
<path d="M268.2,74.7c14.2,10.2,22.1,24.4,29.3,39c0.7,1.4,1.1,3,1.5,4.6c0.4,1.3,0.7,2.6-1.3,3c-1.1,0.2-0.3,1-0.1,1.5
	c1.9,4.9,3.4,9.9,4.2,15.2c1.2,8.2,0.8,16.3-0.7,24.5c-0.9,4.8-1.5,9.7-3.4,14.3c-0.2,0.6-0.1,0.9,0.4,1.3c5,4.2,6,10,6.6,16
	c0.5,5.3-0.2,10.5-1.8,15.6c-1.2,3.8-2.3,7.6-2.9,11.5c-1.9,12.6-10.3,18.8-21.7,21.8c-2.3,0.6-4.6,1.2-6.9,0.8
	c-1.5-0.2-1.3,0.9-1.5,1.6c-1.6,6.2-3.2,12.3-4.7,18.5c-3.9,16-12.4,29.2-24.7,40.1c-3.4,3-7.4,5.3-11.4,7.5
	c-10,5.5-19,12.3-28.7,18.2c-8.9,5.4-18.2,10.1-28.7,11.6c-7.7,1.1-15.3-0.1-22.8-2.1c-7.2-1.9-14.2-4.7-20.9-7.8
	c-6.3-2.9-10.8-8.1-15.2-13.4c-14.3-17-23.3-36.3-28.8-57.5c-0.2-0.8-0.6-1.4-1.2-2c-3-3-6-6-8.8-9.2c-4.1-4.7-6.3-10.1-6.3-16.2
	c0-3.9-0.8-7.5-1.7-11.2c-1.8-7.3-2.1-14.6-0.6-22c0.2-1.1,0.2-2.2-0.2-3.2c-3.2-8.7-4.1-17.9-5.2-27.1c-0.9-7.8-1.9-15.5-2.8-23.3
	c-1.1-8.9-0.5-17.7,1.2-26.4c0.5-2.6-0.2-5.1,0.1-7.6c0.8-6.7,2-13.3,5-19.4c-0.7-0.6-1.3,0-1.8,0.2c-1.1,0.3-2.2,0.6-3-0.5
	c-0.8-1-0.6-2.1,0-3.1c1.1-1.9,2.1-3.8,3.4-5.6c7-9.7,14.9-18.4,24.3-25.9c3.6-2.9,7.6-4.9,12.2-5.6c1.3-0.2,2.1-0.8,2.8-2.1
	c1.8-3.4,3.7-6.6,5.6-9.9c0.5-0.8,1-1.6,1.7-2.3c1.8-1.7,3.9-1.1,4.5,1.3c0.2,0.8,0.3,1.7,0.4,2.6c0.7,0.2,0.9-0.4,1.1-0.8
	c4.1-5.1,8.9-9.5,13.8-13.8c7.7-6.8,17-9.2,26.8-10.2c25.2-2.4,48,4.8,69.3,17.7c7.3,4.4,14.4,9.3,21.6,13.9
	c0.9,0.6,1.9,1.2,1.3,2.4c-0.6,1.2-1.7,0.8-2.7,0.6c-0.8-0.2-1.6-0.4-2.5-0.5c8.2,3.7,15.5,8.9,22.5,14.4c3,2.3,5.8,4.7,8.7,7.1
	c0.8,0.7,1.9,1.5,1.1,2.8c-0.8,1.2-1.9,0.7-3,0.3C270.7,75.5,269.8,75.2,268.2,74.7z M91,130.1c-0.8,1.8-0.4,3.1-0.5,4.4
	c-0.7,8.4-3.4,16.3-6.1,24.2c-3.4,10.1-5.3,20.4-4.5,31.2c0.6,9,1.6,18.1,1.1,27.2c-0.1,1.5-0.4,3.1-0.3,4.6
	c0.8,10.1,2.1,20.2,4.2,30.2c4.9,23.8,14.3,45.4,30,64.1c4.1,4.9,8.3,9.9,14.2,12.6c7.2,3.4,14.6,6.4,22.4,8.2
	c7.3,1.7,14.7,2.7,22.2,1.2c9.3-1.8,17.5-6,25.5-10.9c10.1-6.2,19.6-13.3,30.1-19c10.8-5.8,18.6-14.6,25-24.8
	c5-7.9,7.5-16.8,9.7-25.8c1.3-5.2,2.6-10.3,4-15.5c0.3-1.2,0.9-2.5,2.4-1.9c2.6,1.2,5.1,0.5,7.5-0.1c10.6-2.8,18.2-8.5,19.7-20.2
	c0.5-3.7,1.6-7.3,2.7-10.8c1.8-5.7,2.5-11.6,1.5-17.5c-0.6-3.8-1.5-7.5-4.2-10.4c-0.9-1-1.8-1.6-3.2-0.8c-4.2,2.5-8,5.2-10.2,9.9
	c-1.6,3.5-3.6,6.7-5.4,10c-0.5,0.9-1.2,1.6-2.3,1.3c-1.1-0.3-1.3-1.3-1.4-2.2c0-0.7-0.1-1.5-0.1-2.7c-0.7,1.2-1.2,1.9-1.6,2.7
	c-2,3.4-4,6.6-6.4,9.7c-1,1.3-1.9,1.6-3.5,0.7c-2-1.1-2-2.8-2-4.5c-0.1-5.9,0.4-11.7,0-17.6c-0.6-9.8-1.4-19.5-7.3-27.8
	c-0.3-0.4-0.5-0.9-0.7-1.4c-6.2-12.8-11.6-25.9-16-39.4c-1-3.2-3-5.8-5.8-7.7c-5.4-3.5-11.2-6.3-17-9.2
	c-17.1-8.7-35.4-12.3-54.5-11.9c-8.5,0.2-16.4,2-23.1,7.6c-0.9,0.8-1.8,0.9-3,0.5c-5.4-1.8-10.8-2.1-15.8,1.3
	c-2.8,1.9-5.2,4.3-7.4,6.8c-6.7,7.4-12.7,15.1-14.9,25.2c-0.1,0.4-0.2,0.8-0.4,1.2c-0.3,0.7-0.7,1.3-1.5,1.4
	c-0.9,0.1-1.5-0.5-1.8-1.3C91.7,132.1,91.4,131.3,91,130.1z M235.9,86.6c0.8-0.9,1.6-0.7,2.4-0.7c4.1-0.2,8.2,0.4,12.3,0.7
	c1.2,0.1,2.5,0.3,3.7-0.1c1.8-0.5,2.3-1.9,1-3.3c-1-1.2-2.4-2.1-3.8-3c-9.4-5.6-19.4-9.8-29.8-13.2c-1.9-0.6-3.8-1-5.8-1.1
	c-0.9,0-1.7,0-1.9,1c-0.1,1.1,0.8,1.2,1.6,1.4c1.1,0.2,2.3,0.3,3.4,0.6c11.3,3.1,21.9,7.8,31.9,13.8c0.4,0.2,1,0.4,1,1.3
	c-2.7-0.2-5.4-0.4-8-0.6c-3.1-0.3-6.2-0.3-9.2,0.2c-1.2,0.2-2.8,0.4-3,2.1s1.2,2.2,2.4,2.7c1.5,0.6,3.1,1.2,4.7,1.8
	c6.6,2.2,13.2,4.4,19.3,7.8c2.1,1.2,4.2,2.5,6,4.4c-1,0.2-1.6,0-2.3-0.2c-3.4-0.9-6.9-1.5-10.4-1c-1.7,0.2-4.2,0.1-4.5,2.3
	c-0.3,2.3,2.1,2.6,3.7,3.3c0.9,0.4,1.8,0.6,2.7,0.9c4,1.2,8.1,2.5,11.9,4.5c2.1,1.1,4.6,1.9,5.7,4.4c0.4,0.9,1.3,0.9,2.1,0.4
	c0.9-0.5,0.9-1.4,0.4-2.1c-0.5-0.8-1.3-1.4-2-1.9c-5-3.7-10.9-5.6-16.7-7.5c-1.3-0.4-2.7-0.6-4.1-1.6c1.9-0.2,3.3-0.4,4.9-0.3
	c3.1,0.2,6,1.2,9,1.7c1.1,0.2,2.1,0.3,2.8-0.7c0.7-1.1,0.2-2.1-0.5-3c-0.6-0.7-1.2-1.5-2-2.1c-4.6-4-10.2-6.3-15.8-8.4
	C244.7,89.5,240.3,88.1,235.9,86.6z M75.3,221.5c0,2.2-0.4,4.1,0.4,5.9c0.4,0.9,0.2,1.6-0.7,2c-0.9,0.4-1.4-0.2-1.8-0.9
	c-0.8-1.3-1-2.8-0.7-4.2c1.1-6.5-0.2-12.7-2.5-18.8c-0.3-0.8-0.4-1.6-0.6-2.3c-0.3-0.8-0.4-1.7-1.2-2.4c-0.1,0.3-0.4,0.5-0.4,0.8
	c-0.9,5.6-0.9,11.2,0.2,16.8c1,5.4,2.5,10.6,2.6,16.1c0.1,8.5,6,13.8,11.6,19.2c0.1-0.8-0.1-1.5-0.2-2.2c-1.8-8-3.2-16-3.6-24.2
	C78.3,224.8,77.5,223.1,75.3,221.5z M74.5,124.6c-0.1-0.2-0.3-0.4-0.4-0.6c-0.5-1-0.8-2.2-2.2-2.1c-1.4,0.2-1.5,1.5-1.7,2.5
	c-0.4,2.1-0.4,4.2-0.5,6.3c-0.4,6.4,0.9,12.7,0.5,19.1c0,0.7,0.3,1.2,0.9,1.3c0.8,0.2,1.3-0.3,1.5-1c0.4-1.2,0.6-2.4,0.4-3.7
	c-0.8-5.9-0.8-11.8-0.7-17.8c0-0.4-0.3-1.1,0.6-1.2c0.2,0.6,0.4,1.2,0.8,1.8c0.6,1.1,0.7,3.1,2.6,2.7c1.7-0.4,1.3-2.1,1.3-3.3
	c0-4.5-0.1-8.9,0-13.4c0.1-5.3,0.6-10.5,1.9-16.1c0.6,1.6,1,2.6,1.4,3.7s0.9,2.2,1.8,3c0.6,0.6,1.3,1.2,2.3,0.8
	c0.8-0.3,1.2-1,1.3-1.9s0.3-1.7,0.3-2.6c0.3-7.2,0.3-14.4,1.8-21.4c0.2-0.8-0.1-1.6-0.4-2.3c-0.2-0.6-0.7-0.7-1.3-0.6
	c-0.7,0.2-0.9,0.6-1,1.2c-0.4,4-0.9,8-1.2,12c-0.3,3.9-0.4,7.9-0.6,12.4c-1.4-2.6-1.9-4.9-2.6-7.1c-0.3-0.9-0.4-2.2-1.8-2.2
	c-1.5-0.1-1.8,1.2-2,2.2c-1.3,4.7-1.9,9.4-2.3,14.3C74.8,115.2,74.9,119.9,74.5,124.6z"/>
<path d="M126.3,257.1c13.3,3.5,26.5,3.8,39.9,3.1c8.9-0.5,17.6-2,26.3-3.4c1.2-0.2,2.9-0.2,1.5-2.3c-0.4-0.6-0.2-1.3,0.4-1.7
	c0.6-0.4,1.2-0.2,1.8,0.2c2.7,2.3,4.5,5.2,5.9,8.4c0.7,1.7-0.3,2.9-2,2.4c-1-0.3-1.4-0.1-2,0.7c-6.7,9.2-15.5,14.5-27.1,14.7
	c-8.6,0.2-17.1,1-25.6-1.1c-6.8-1.7-12.7-4.8-17-10.6c-1.2-1.6-2.7-3.1-4.1-4.6c-0.4-0.4-0.7-0.7-1.3-0.7c-2.3,0-2.1-1.5-1.5-2.9
	c1-2,2.2-3.8,3.4-5.6c0.4-0.7,1.1-1,1.9-0.6s0.9,1.1,0.6,1.9C127.3,255.7,126.8,256.3,126.3,257.1z M126.1,260.5
	c1.5,1.7,3,3,4.1,4.6c4.5,6.4,11,9.5,18.4,10.8c7.7,1.4,15.5,0.7,23.2,0.5c10.5-0.3,18.1-5.3,24.1-13.5c0.6-0.8,1.5-1.7,0.9-2.8
	c-0.6-1.1-1.8-0.6-2.8-0.5c-6.7,0.6-13.2,2.3-20,2.8c-13.7,1.1-27.4,1.8-41.1-0.9C130.9,261,128.7,260.2,126.1,260.5z"/>
<path d="M233.9,163.1c0,1.5-1.2,2.3-2.5,1.7c-0.5-0.2-0.9-0.5-1.2-0.9c-5.3-5.2-11.9-7-19-7.3c-8.4-0.3-16.6,0.6-24.8,2.3
	c-3.4,0.7-6.5,1.7-9.5,3c-1,0.4-2.1,0.2-3.1,1c-0.8,0.6-1.9-0.6-1.5-1.8c0.2-0.8,0.8-1.4,1.4-1.9c3.5-3.2,7.5-5.8,11.8-8
	c2.4-1.2,5-0.4,7.5-0.9c8.1-1.5,16.3-1.4,24.3,0.5c6,1.4,10.7,4.9,15.1,9C233.2,161,233.9,162.4,233.9,163.1z M207.3,153.4
	c-3-0.3-6-0.2-8.9,0.6C201.4,154.1,204.4,153.9,207.3,153.4z"/>
<path d="M147,187.2c-0.2,10.2-3.2,19.8-6,29.4c-0.9,3-1.6,6.1-1.8,9.2c-0.1,1.7,0.5,3,1.5,4.4c3.3,4.6,7.5,7.1,13.3,6.4
	c1.3-0.2,2.5-0.5,3.6-1.3c4.5-3.3,9.6-4.5,15.1-3.5c0.3,0,0.6,0.1,0.9,0.2c0.9,0.3,1.8,0.6,1.6,1.8s-1.3,1.2-2.3,1
	c-3.7-0.8-7.3-0.7-10.7,1c-0.9,0.4-1.7,0.9-2.5,1.4c-5.8,3.9-13.8,2.5-18.8-2.3c-4.9-4.7-5.3-9.8-3.7-15.8
	c1.8-6.5,3.9-12.9,5.2-19.5c1-4.7,1.5-9.5,1.7-14.4c0.2-4.2-1.5-7.7-3.8-11c-0.6-0.9-1.9-2-0.5-3c1.5-1,2.1,0.5,2.9,1.5
	C146.1,177.2,147.8,181.9,147,187.2z"/>
<path d="M104.7,153.7c1.8,0.4,3.8-0.1,4.2,2.5c0.1,0.8,1.3,0.9,1.5-0.1c0.4-1.8,1.7-1.5,2.9-1.4c6.1,0.8,11.5,3.2,16.8,6.1
	c1.1,0.6,2.1,1.4,3.3,1.7c0.7,0.2,1.4,0.8,1.1,1.6c-0.3,0.9-1.1,1.1-1.9,1c-0.3,0-0.6-0.1-0.8-0.2c-3.6-2.5-8.1-1.8-11.9-3.6
	c-0.9-0.5-1.9-0.7-2.3,0.9c-0.3,1-1.4,0.8-2.3,0.8c-4.6,0-9.2-0.9-13.8-1.3c-3.7-0.3-7.1,0.4-10.5,1.8c-0.9,0.4-1.9,1-2.8,0.1
	c-0.8-0.8-0.4-1.6,0.4-2.2c0.5-0.4-0.1-0.8-0.2-1.2c-0.1-0.7,0.1-1.3,0.7-1.7C94.1,156,99.3,154.2,104.7,153.7z"/>
<path d="M292.4,210.6c-2.6,0.3-4.3,1.7-5.9,3.1c-4.6,3.9-7.5,9.1-10.5,14.2c-0.4,0.7-0.8,1.4-1.4,2c-0.5,0.6-1.2,0.8-1.9,0.2
	c-0.6-0.5-0.6-1.2-0.2-1.8c3.4-5.5,6.4-11.4,11.3-15.8c2.7-2.4,5.4-4.7,9.3-4.8c0.8,0,1-0.5,1.2-1.1c1.8-5.2,2.6-10.5,0.9-15.9
	c-0.5-1.5-1-3.4-3.4-2.9c-0.7,0.1-1.1-0.3-1.3-1c-0.2-0.8,0.2-1.2,0.8-1.6c1.4-0.9,3.5-0.4,4.9,1.3c1.7,2.1,2.4,4.7,2.6,7.3
	c0.5,5.6-0.3,11-2.8,16c-1.4,2.9-2.3,6-3,9.1c-1.3,5.8-4.5,10.4-9.2,14c-0.8,0.6-1.8,1.5-2.6,0.2c-0.9-1.2,0.2-1.8,1-2.5
	c4.4-3.4,7.2-7.8,8.3-13.3C290.7,215.3,291.4,213.1,292.4,210.6z"/>
<path d="M133.1,182.8c-4.2-3-8.8-4.7-14.1-4.1c-8.4-0.5-16.1,2.5-23.7,5.9c-0.6,0.3-1.1,0.7-1,1.5s0.8,1.2,1.6,1.1
	c0.7-0.1,1.4-0.3,2.1-0.6c3-1.1,5.8-2.7,8.8-3.5c0.2-0.1,0.7-0.3,1.4-0.4c0.5-0.1,0.9-0.1,1.2-0.2c2.2-0.6,5.3-1.2,9-1.1
	c3.7,0.1,7.2,0.9,8.5,1.3c0.8,0.2,0.4,0.1,1.1,0.4c0.8,0.3,0.8,0.3,1.4,0.6c0.7,0.4,1.5,0.9,2.2,1.4c0.9,0.6,1.9,1.2,2.7,0.1
	C135,184,134,183.4,133.1,182.8z"/>
<path d="M199.4,176.5c-5.6-0.1-10.4,1.8-14.6,5.2c-0.9,0.7-1.9,1.4-0.9,2.5c0.9,1,1.9,0.4,2.8-0.3c0.7-0.6,1.5-1.1,2.2-1.6
	c2.6-1.7,2.6-1.7,4.6,0.5c0.3,0.4,0.8,0.7,1.2,1c3.4,2,10.3,1,13-1.8c0.1-0.1,0.2-0.2,0.3-0.4c0.6-3,2.8-2.1,4.7-1.7
	c3.3,0.6,6.3,1.9,9.5,2.8c0.7,0.2,1.5,0.4,2.3,0.4c0.9,0,1.5-0.4,1.6-1.2s-0.5-1.2-1.2-1.4C216.6,177.7,208.3,175.4,199.4,176.5z"/>
<path class="st1" d="M223.9,181.3c-3.6-0.9-7.7-1.7-11.8-2c-1.1-0.1-2.2-0.2-3.3-0.2c-1.7-0.1-3-0.1-4,2c-1.1,2.5-4.1,2.6-6.6,2.6
	c-2.1,0-4.4-0.4-5.1-3c-0.3-0.9-0.7-0.7-1.3-0.5c-2.2,0.5-4.3,1.3-6.2,2.6c-1.1,0.8-2.3,1.6-3.4,2.4c-0.8,0.6-1.8,1-2.5-0.1
	c-0.7-1,0.1-1.6,0.8-2.2c4.5-3.7,9.7-6,15.6-6.5c9.1-0.8,18.1-0.5,27.1,1.7c0.6,0.1,1.1,0.2,1.7,0.5c0.7,0.3,1.3,0.8,1,1.7
	C225.7,181.2,225,181.4,223.9,181.3z"/>
<path d="M216,250.6c-0.1-6-1.1-11.6-5-16.5c-0.5-0.7-0.8-1.5-0.1-2.1c1-0.8,1.8-0.2,2.4,0.6c3,3.7,4.4,8.1,5,12.7
	c0.6,4.3,0.8,8.6-0.7,12.8c-0.2,0.6-0.5,1.2-0.8,1.8c-0.4,0.9-1.1,1.5-2.1,0.9c-0.9-0.5-0.8-1.3-0.4-2.1
	C215.8,256.1,216.1,253.4,216,250.6z"/>
<path d="M105.1,258.5c0-5.9,1.2-11.5,5-16.2c0.6-0.8,1.2-1.7,2.3-1c1.2,0.8,0.7,1.8,0,2.6c-4.4,5.6-5,12.1-4.1,18.9
	c0.1,0.7,0.3,1.4,0.6,2.1c0.4,0.9,0.6,1.8-0.4,2.3c-1.2,0.6-1.8-0.4-2.2-1.2C105.1,263.6,105.1,261,105.1,258.5z"/>
<path d="M173.5,235.3c2.2,0.1,4.2-0.1,6.1-0.8c3.1-1.1,4.3-4.1,2.9-7.1c-0.5-1-1.3-2.1,0.2-2.8c1.4-0.7,1.9,0.7,2.4,1.6
	c2.2,4,0.1,9.2-4.3,10.8c-2.6,1-5.4,1.2-8.2,1c-1.1-0.1-2.5-0.2-2.3-1.7c0.2-1.6,1.5-1.2,2.6-1C173.2,235.4,173.5,235.3,173.5,235.3
	z"/>
<path d="M153.7,308.4c-1,0-2.2,0.2-2.4-1.3c-0.1-1.5,1.1-1.4,2.1-1.5c4.9-0.7,9.9-0.8,14.8-1c1,0,2.1-0.1,2.1,1.3c0,1.2-1,1.4-2,1.5
	C163.4,307.7,158.5,307.7,153.7,308.4z"/>
<path d="M166.2,182.4c0-2.5,0.5-4.9,1.4-7.3c0.3-0.9,0.7-2,2-1.5c1.1,0.4,1.1,1.4,0.7,2.4c-0.9,2.4-1.3,4.9-1.3,7.5
	c0,1,0.1,2.3-1.4,2.3s-1.3-1.3-1.3-2.3C166.2,183.1,166.2,182.8,166.2,182.4z"/>
<path d="M139.8,235.5c-0.2,1.1-1,1.4-1.9,1.1c-0.9-0.2-1.8-0.6-2.7-0.8c-1.4-0.3-2.8-0.3-3.8,0.9c-0.7,0.8-1.4,1.1-2.2,0.3
	s-0.6-1.8,0.2-2.5c0.9-0.9,2.1-1.3,3.3-1.5c2.1-0.4,4.1,0.1,6,1C139.3,234.3,139.8,234.7,139.8,235.5z"/>
<path d="M106.9,183.5c0.2,0.2,0.8,0.6,1,0.8c0.1,0.3,0.7,0.9,0.9,1c0.5,0.4,1.3,0.8,1.5,0.8c1.1,0.4,1.6,0.4,2.2,0.5
	c1,0.1,1.6,0.2,2,0.2c0.5,0.1,1.3,0,2.2-0.1c0.7,0,1.7,0,3-0.5c0.5-0.2,1.3-0.4,2.2-0.9c0.6-0.3,0.9-0.5,1.4-0.9
	c0.2-0.2,1.2-1,1.6-1.5c0.7-0.9,1.8-0.4,1.7-0.9c-0.2-0.9-7-1.5-22.3,0.4c0,0.2,1.1,0.5,1.3,0.5C106,183.1,106.3,183.2,106.9,183.5z
	"/>
</svg>
